<svg width="92" height="91" viewBox="0 0 92 91" fill="none" xmlns="http://www.w3.org/2000/svg">
<path d="M90.1339 56.5065C84.0568 80.8817 59.3688 95.7161 34.9908 89.6376C10.6227 83.5605 -4.21176 58.8711 1.86818 34.4973C7.94243 10.1192 32.6304 -4.71661 57.0014 1.36048C81.378 7.43758 96.211 32.1299 90.1339 56.5065Z" fill="#F7931A"/>
<path d="M66.0615 39.0174C66.9673 32.9631 62.3575 29.7084 56.0544 27.5372L58.099 19.3358L53.1068 18.0917L51.1162 26.0769C49.8038 25.7499 48.4559 25.4413 47.1165 25.1356L49.1213 17.0978L44.1319 15.8536L42.0859 24.0522C40.9996 23.8048 39.9332 23.5602 38.898 23.3028L38.9037 23.2772L32.019 21.5582L30.691 26.8902C30.691 26.8902 34.3949 27.7391 34.3167 27.7917C36.3387 28.2965 36.7041 29.6344 36.6429 30.6952L34.3139 40.0383C34.4532 40.0739 34.6338 40.125 34.8329 40.2047C34.6665 40.1634 34.4888 40.1179 34.3054 40.0739L31.0407 53.1622C30.7933 53.7765 30.1663 54.6978 28.7529 54.3481C28.8027 54.4206 25.1243 53.4423 25.1243 53.4423L22.646 59.1568L29.1425 60.7764C30.3511 61.0792 31.5356 61.3963 32.7015 61.6949L30.6355 69.9901L35.622 71.2342L37.6681 63.0272C39.0303 63.3969 40.3526 63.7381 41.6465 64.0595L39.6075 72.2281L44.5997 73.4723L46.6657 65.1927C55.1785 66.8037 61.5798 66.1539 64.2742 58.4544C66.4454 52.2551 64.1662 48.679 59.6873 46.3472C62.949 45.595 65.406 43.4494 66.0615 39.0174ZM54.6552 55.0121C53.1125 61.2115 42.6745 57.8601 39.2905 57.0198L42.0318 46.0301C45.4159 46.8747 56.2677 48.5468 54.6552 55.0121ZM56.1994 38.9278C54.7917 44.567 46.1041 41.7019 43.2859 40.9995L45.7714 31.0322C48.5895 31.7346 57.6654 33.0455 56.1994 38.9278Z" fill="white"/>
</svg>
