<svg width="23" height="18" viewBox="0 0 23 18" fill="none" xmlns="http://www.w3.org/2000/svg">
<path d="M22.5 2.46549V16.0345C22.5 17.0957 21.4282 17.821 20.4427 17.4272L11.25 13.75V16C11.25 16.414 10.914 16.75 10.5 16.75H4.5C4.086 16.75 3.75 16.414 3.75 16V13C3.336 13 3 12.664 3 12.25V6.24999C3 5.83599 3.336 5.49999 3.75 5.49999H7.5C7.914 5.49999 8.25 5.83599 8.25 6.24999V12.25C8.25 12.664 7.914 13 7.5 13H5.25V15.25H9.75V13.15L9 12.8507V5.65149L20.4427 1.07274C21.4282 0.67899 22.5 1.40424 22.5 2.46549ZM2.25 6.24999C1.42125 6.24999 0.75 6.92124 0.75 7.74999V10.75C0.75 11.5787 1.42125 12.25 2.25 12.25V6.24999Z" fill="#7780A1"/>
</svg>
