<svg width="25" height="25" viewBox="0 0 25 25" fill="none" xmlns="http://www.w3.org/2000/svg">
<path fill-rule="evenodd" clip-rule="evenodd" d="M19.4852 17.4453C19.196 18.264 18.0464 18.9412 17.1296 19.1393C16.502 19.2725 15.6836 19.3779 12.926 18.2352C9.8288 16.952 5.528 12.3812 5.528 9.33945C5.528 7.79099 6.4208 5.98789 7.982 5.98789C8.7332 5.98789 8.8988 6.00254 9.146 6.59551C9.4352 7.29412 10.1408 9.01535 10.2248 9.1918C10.5716 9.91561 9.87199 10.3393 9.36439 10.9695C9.20239 11.1592 9.01881 11.3643 9.22401 11.7172C9.42801 12.0629 10.1336 13.2129 11.1704 14.1359C12.5096 15.3291 13.5956 15.71 13.9844 15.8721C14.2736 15.9921 14.6192 15.9641 14.8304 15.7385C15.098 15.4492 15.4304 14.9692 15.7688 14.4963C16.0076 14.1578 16.3112 14.1155 16.6292 14.2355C16.844 14.31 19.574 15.5778 19.6892 15.7807C19.7744 15.9283 19.7744 16.6267 19.4852 17.4453ZM12.5024 0.5H12.4964C5.88079 0.5 0.5 5.88242 0.5 12.5C0.5 15.124 1.34601 17.5584 2.78481 19.533L1.28961 23.992L5.90121 22.5184C7.79841 23.7739 10.0628 24.5 12.5024 24.5C19.118 24.5 24.5 19.1176 24.5 12.5C24.5 5.88242 19.118 0.5 12.5024 0.5Z" fill="white"/>
</svg>
